<svg xmlns="http://www.w3.org/2000/svg" viewBox="0 0 100 100">
  <rect width="100" height="100" rx="22" fill="#09090b"/>
  <g fill="none" stroke-linecap="round">
    <path d="M50 55 C40 40, 15 30, 10 15 C8 8, 18 5, 25 12 C32 19, 42 38, 50 55Z" stroke="#00e5ff" stroke-width="4"/>
    <path d="M50 55 C60 40, 85 30, 90 15 C92 8, 82 5, 75 12 C68 19, 58 38, 50 55Z" stroke="#00e5ff" stroke-width="4"/>
    <path d="M50 55 C38 65, 12 72, 8 88 C6 95, 18 97, 26 88 C34 79, 44 65, 50 55Z" stroke="#5eeaf6" stroke-width="3"/>
    <path d="M50 55 C62 65, 88 72, 92 88 C94 95, 82 97, 74 88 C66 79, 56 65, 50 55Z" stroke="#5eeaf6" stroke-width="3"/>
  </g>
  <circle cx="50" cy="55" r="4" fill="#00f5ff"/>
</svg>
